<?xml version="1.0" encoding="UTF-8" standalone="no"?>
<!-- Created with Inkscape (http://www.inkscape.org/) -->

<svg
   xmlns:dc="http://purl.org/dc/elements/1.1/"
   xmlns:cc="http://creativecommons.org/ns#"
   xmlns:rdf="http://www.w3.org/1999/02/22-rdf-syntax-ns#"
   xmlns:svg="http://www.w3.org/2000/svg"
   xmlns="http://www.w3.org/2000/svg"
   xmlns:sodipodi="http://sodipodi.sourceforge.net/DTD/sodipodi-0.dtd"
   xmlns:inkscape="http://www.inkscape.org/namespaces/inkscape"
   width="274.99997"
   height="99.999992"
   id="svg3287"
   version="1.1"
   inkscape:version="0.48.5 r10040"
   sodipodi:docname="arena.svg">
  <defs
     id="defs3289">
    <inkscape:path-effect
       effect="spiro"
       id="path-effect3308"
       is_visible="true" />
  </defs>
  <sodipodi:namedview
     id="base"
     pagecolor="#ffffff"
     bordercolor="#666666"
     borderopacity="1.0"
     inkscape:pageopacity="0.0"
     inkscape:pageshadow="2"
     inkscape:zoom="1.9490839"
     inkscape:cx="116.35933"
     inkscape:cy="9.6153461"
     inkscape:document-units="px"
     inkscape:current-layer="layer1"
     showgrid="false"
     borderlayer="true"
     inkscape:showpageshadow="false"
     fit-margin-top="0"
     fit-margin-left="0"
     fit-margin-right="0"
     fit-margin-bottom="0"
     inkscape:window-width="1366"
     inkscape:window-height="705"
     inkscape:window-x="-8"
     inkscape:window-y="-8"
     inkscape:window-maximized="1" />
  <metadata
     id="metadata3292">
    <rdf:RDF>
      <cc:Work
         rdf:about="">
        <dc:format>image/svg+xml</dc:format>
        <dc:type
           rdf:resource="http://purl.org/dc/dcmitype/StillImage" />
        <dc:title />
      </cc:Work>
    </rdf:RDF>
  </metadata>
  <g
     inkscape:label="Layer 1"
     inkscape:groupmode="layer"
     id="layer1"
     transform="translate(-134.67569,-610.1674)">
    <path
       inkscape:connector-curvature="0"
       style="fill:#ff414b;fill-opacity:1"
       d="m 188.64449,610.16816 c -0.49129,0.008 -1.02303,0.073 -1.55002,0.19995 -2.18123,0.52566 -4.75874,2.44705 -6.18896,4.60989 -1.32888,2.00946 -2.36615,2.61018 -3.96986,2.3105 -0.61959,-0.11578 -1.58285,-0.0337 -2.14106,0.17773 -0.8774,0.33225 -0.97782,0.51485 -0.76946,1.35519 0.13254,0.53472 0.72856,1.7325 1.32698,2.66596 1.28225,1.99993 1.21891,2.87542 -0.40144,5.49854 -0.59246,0.9592 -2.45957,4.93535 -4.14829,8.83099 -2.9837,6.88331 -9.16221,19.82705 -12.51175,26.22637 l -1.65039,3.16582 -2.00724,-0.22216 c -1.1046,-0.12119 -2.58393,-0.32397 -3.28966,-0.44433 -1.18268,-0.2017 -1.40614,-0.0894 -2.85474,1.44406 -1.56243,1.654 -3.17461,3.98564 -3.17811,4.59878 0,0.18496 1.81362,0.23471 4.28212,0.11108 2.90258,-0.14538 4.2821,-0.0988 4.2821,0.15552 0,0.62079 -3.53163,8.81239 -5.09617,11.81908 -2.8197,5.41881 -7.06366,8.78056 -11.83157,9.37529 -2.1513,0.26835 -2.87989,0.83951 -1.72844,1.34409 0.78128,0.34234 24.0081,0.67897 25.25776,0.36657 0.49072,-0.12271 0.89211,-0.46099 0.89211,-0.75536 0,-0.7083 -1.45657,-1.23301 -3.43462,-1.23301 -1.66726,0 -3.56941,-0.76999 -4.31556,-1.74398 -0.86949,-1.13496 -0.4405,-2.74407 2.25255,-8.38666 3.91556,-8.20414 4.90941,-10.14382 5.36381,-10.51943 0.67319,-0.55656 10.92784,-0.72016 26.36173,-0.42211 l 14.63053,0.27771 3.83605,6.57603 c 4.77755,8.19088 6.58478,11.05186 9.28903,14.68499 2.7636,3.71283 7.95962,9.05247 10.98404,11.28589 4.19511,3.09789 9.84528,5.34391 16.39248,6.52049 1.92652,0.34623 6.61636,-0.0667 7.93974,-0.69982 1.66381,-0.796 1.70774,-1.22189 0.12265,-1.22189 -3.59459,0 -9.14273,-1.68898 -12.94671,-3.95451 -4.09858,-2.44108 -10.14663,-8.92016 -14.24022,-15.24039 -2.21424,-3.41862 -8.96323,-16.33281 -9.12178,-17.45093 -0.11397,-0.80383 -0.011,-0.85512 1.83999,-0.92197 9.33756,-0.33725 19.30456,-0.98184 20.30653,-1.31077 1.41139,-0.46332 1.76709,-1.08091 0.84751,-1.47738 -0.35178,-0.15166 -4.78233,-0.36662 -9.84664,-0.48876 -7.45619,-0.17982 -9.2659,-0.32953 -9.52319,-0.74425 -0.17481,-0.28168 -0.44391,-1.55555 -0.60221,-2.83258 -0.33486,-2.70214 -0.31244,-16.30832 0.0335,-18.60617 l 0.24533,-1.56625 1.85112,-0.21105 c 1.02225,-0.11756 3.83166,-0.3328 6.24474,-0.46655 l 4.39362,-0.23327 1.27126,1.19968 c 0.70005,0.66522 3.39909,3.61016 5.9994,6.54271 5.37743,6.06454 10.64457,11.22424 14.28487,13.97407 3.003,2.26849 8.07026,4.79607 11.24052,5.62073 2.57252,0.66921 9.08564,0.89179 9.12175,0.31102 0.0122,-0.1955 -1.19207,-0.765 -2.67632,-1.26633 -4.10483,-1.38655 -6.30675,-2.65793 -10.05846,-5.83178 -1.86185,-1.57507 -3.88066,-3.92361 -3.88066,-4.50991 0,-0.1583 5.98153,-0.32642 13.29238,-0.37768 l 13.29238,-0.1 1.49424,-3.02142 c 1.70542,-3.43589 2.1889,-4.97646 1.55004,-4.97646 -0.40836,0 -1.01392,0.57934 -3.49033,3.32134 -2.15341,2.38427 -2.76328,2.54484 -9.54554,2.54377 -6.49303,-10e-4 -9.29449,-0.4372 -10.37076,-1.62179 -0.54059,-0.59504 -0.60774,-1.41682 -0.5464,-6.56493 0.0386,-3.23816 0.21917,-6.28736 0.40145,-6.76487 l 0.32337,-0.86643 6.34512,-0.0555 c 13.25016,-0.12508 18.63512,-0.0876 18.86803,0.1444 0.51289,0.51091 0.99031,16.00774 0.59104,19.16158 -0.54007,4.26479 -1.03145,5.06675 -3.65763,6.02062 -2.69452,0.97866 -3.32077,1.61546 -1.91803,1.96615 1.43065,0.35769 15.35467,0.37818 15.71219,0.0222 0.43536,-0.43341 -0.80721,-1.21589 -2.89934,-1.82173 -1.00882,-0.29214 -2.21799,-0.94552 -2.69861,-1.45517 -0.99374,-1.05369 -0.96955,-0.33222 -0.69139,-14.80718 0.0971,-5.05201 0.31609,-8.56824 0.53526,-8.78656 0.20102,-0.20023 2.52941,-0.46077 5.17422,-0.57762 4.57464,-0.20211 6.76887,-0.61295 6.76887,-1.25522 0,-0.59875 -0.80633,-0.7079 -6.07749,-0.83312 -3.47172,-0.0825 -5.55404,-0.27838 -5.82099,-0.5443 -0.47735,-0.4755 -0.60039,-11.15438 -0.13381,-11.61913 0.15512,-0.15453 0.67174,-0.0438 1.1486,0.24438 1.26635,0.76544 10.64028,8.77002 16.41474,14.0185 8.71242,7.91886 24.80407,23.67939 24.80054,24.29354 0,0.32505 -0.38767,1.06861 -0.85867,1.65512 l -0.85867,1.06638 -12.79055,0.21106 c -7.26716,0.11921 -13.17219,0.36243 -13.67152,0.56652 l -0.88097,0.36656 0.8475,0.44433 c 1.78261,0.95033 3.38464,1.12378 13.7273,1.44406 5.87219,0.18185 10.79427,0.44737 10.93943,0.59984 0.31031,0.32575 -4.45118,11.03559 -6.14437,13.81856 -1.46201,2.40297 -3.99042,4.98959 -5.77638,5.89843 -0.7534,0.3834 -2.35919,0.86946 -3.56843,1.07749 -1.20922,0.20803 -2.67171,0.61489 -3.25618,0.91087 l -1.07053,0.5443 0.89211,0.35546 c 1.29548,0.52378 23.80088,0.77251 25.0793,0.2777 1.61815,-0.62623 0.94325,-1.25426 -1.62806,-1.51071 -2.6621,-0.26549 -4.75288,-1.12313 -5.31919,-2.17719 -0.761,-1.4164 -0.0684,-3.64621 3.23388,-10.38614 1.80783,-3.6898 3.61074,-7.15991 4.00334,-7.70906 l 0.71369,-0.99973 20.44035,0 20.44036,0 2.70979,4.88759 c 4.92556,8.8922 6.04951,11.78401 5.47531,14.06293 -0.23119,0.91743 -1.29259,1.48201 -3.51268,1.86617 -1.59063,0.27524 -2.46857,1.11252 -1.68387,1.59958 0.2818,0.17489 1.18683,0.42068 2.00724,0.5443 2.05969,0.31032 24.40783,-0.0149 25.20199,-0.36657 0.39156,-0.17337 0.60103,-0.58494 0.53526,-1.04417 -0.0869,-0.60641 -0.49687,-0.83326 -2.07411,-1.14414 -5.52335,-1.08861 -6.93769,-2.03323 -9.12182,-6.08727 -0.92501,-1.71692 -2.75729,-5.04089 -4.07021,-7.38693 -2.15604,-3.85258 -3.22271,-6.15735 -3.22271,-6.97593 0,-0.1619 2.89034,-0.20302 6.42315,-0.0889 3.53267,0.11415 6.41877,0.0786 6.412,-0.0889 -0.0373,-0.89791 -3.40217,-5.26006 -4.51631,-5.854 -0.68114,-0.36316 -1.27089,-0.37066 -2.91048,-0.0333 -1.13211,0.23292 -3.57613,0.42211 -5.4307,0.42211 -2.82566,0 -3.44421,-0.10077 -3.76912,-0.62206 -0.78773,-1.26348 -7.29728,-13.2798 -10.92829,-20.17242 -2.05987,-3.91007 -5.07505,-9.50859 -6.70196,-12.44114 -3.76366,-6.78411 -7.0667,-13.52297 -7.3487,-15.00713 -0.36631,-1.92759 0.0832,-2.83057 1.91802,-3.86564 3.305,-1.86453 3.43446,-1.97288 2.89934,-2.31049 -0.91447,-0.57695 -4.20463,-0.34766 -5.65373,0.38878 -0.76136,0.38688 -2.32362,1.75594 -3.46808,3.04364 -2.5004,2.81347 -3.44678,3.35466 -5.80982,3.35466 -1.74108,0 -1.79534,0.0368 -1.79534,1.01084 0,0.62131 0.50208,1.65885 1.31581,2.69929 1.76199,2.25279 1.73304,3.31644 -0.22302,7.03146 -0.85204,1.61832 -2.38168,4.78318 -3.40113,7.03147 -3.98329,8.78457 -8.17316,17.07402 -8.47501,16.77332 -0.17225,-0.17158 -0.35053,-6.77501 -0.39032,-14.67388 -0.0647,-12.85207 0.004,-14.64671 0.59104,-17.13989 0.3607,-1.53232 0.9396,-3.07984 1.29356,-3.43242 0.35394,-0.35258 1.46048,-0.75266 2.45329,-0.88866 1.74363,-0.23887 2.93099,-0.9899 2.39751,-1.52181 -0.41036,-0.40917 -16.77965,-0.3233 -16.88306,0.0889 -0.0491,0.19551 0.79208,0.65179 1.87342,1.01084 3.56906,1.18508 4.71652,3.1457 4.81737,8.23115 0.0271,1.36853 0.0373,8.84654 0.0221,16.61781 -0.0197,10.25561 -0.13089,14.12958 -0.42372,14.12958 -0.65302,0 -5.256,-4.12522 -14.77552,-13.27425 -4.90953,-4.71846 -11.3327,-10.73594 -14.27368,-13.36312 -2.941,-2.62718 -7.63793,-7.02073 -10.43765,-9.76407 l -5.085,-4.98757 -7.76131,-0.0111 c -7.16918,-0.01 -7.91213,0.0535 -9.89121,0.78868 -1.97872,0.73495 -4.82315,3.04901 -4.33789,3.5324 0.10324,0.10283 1.67892,-0.32674 3.50152,-0.9553 3.17008,-1.0933 3.42319,-1.12403 5.73178,-0.74425 4.37174,0.7192 8.39728,3.1011 9.37829,5.54297 0.2986,0.74351 0.40319,3.3534 0.34566,8.53107 -0.0456,4.10558 -0.0984,7.59736 -0.12264,7.7535 -0.057,0.36795 -24.59133,-0.11006 -25.64804,-0.49987 -0.79141,-0.2919 -0.79993,-0.38824 -0.7583,-6.265 0.0232,-3.27953 0.14185,-6.44565 0.26764,-7.03147 l 0.22303,-1.05528 5.07383,-0.47765 c 6.36421,-0.5904 8.07862,-0.25017 9.18868,1.79953 0.70969,1.31042 2.123,2.37292 2.56481,1.93282 0.47607,-0.47422 0.16436,-3.41493 -0.52412,-4.96535 l -0.70252,-1.59958 -6.20014,-0.25549 c -3.40627,-0.1409 -7.87504,-0.15761 -9.93581,-0.0444 -2.06083,0.11315 -5.99498,0.22519 -8.74263,0.24438 -3.80162,0.0264 -4.78255,0.12036 -4.10369,0.3999 0.49066,0.20204 1.40054,0.57808 2.02951,0.84422 2.26016,0.9562 2.26491,0.97061 2.46445,19.01717 0.0994,8.98514 0.0447,16.32899 -0.12264,16.32899 -0.74056,0 -10.58177,-10.45542 -13.40392,-14.24066 l -0.93672,-1.25522 1.78422,-1.33298 c 5.82395,-4.33112 7.96408,-12.00051 4.92892,-17.67308 -1.97466,-3.69043 -5.38393,-5.81677 -11.47473,-7.15366 -2.83662,-0.62259 -5.12329,-0.76166 -16.49279,-0.96641 -7.26177,-0.13095 -13.59512,-0.13746 -14.073,-0.0222 -1.42477,0.34356 -1.24381,0.9849 0.40144,1.43296 3.82799,1.04242 3.91074,1.09322 4.48287,2.42158 1.20331,2.79378 1.64829,40.89229 0.50179,42.93304 -0.42746,0.76092 -0.81238,0.0643 -9.8689,-17.98411 -4.26159,-8.49258 -8.51904,-16.80795 -9.46749,-18.48398 -2.28743,-4.04199 -3.11909,-6.96592 -2.53133,-8.91986 0.43731,-1.45426 0.57563,-1.55727 3.72451,-2.79925 1.86557,-0.73578 0.38956,-1.68759 -1.73961,-1.65512 z m 29.64025,5.43189 c 1.76238,-7.1e-4 6.40347,0.50259 8.59765,0.98863 5.36181,1.1877 9.73274,4.19829 10.88369,7.49801 0.26706,0.76556 0.4736,2.50822 0.45723,3.87675 -0.0699,5.81143 -3.77433,9.79755 -10.74988,11.5747 -2.50349,0.63779 -7.76507,0.89406 -9.42289,0.45544 -0.87365,-0.23116 -1.04743,-1.19639 -1.27125,-7.02036 -0.16932,-4.40501 0.39443,-16.56716 0.8029,-17.2843 0.0342,-0.0599 0.29575,-0.0887 0.70255,-0.0889 z m -38.0037,14.92937 0.65791,0.85533 c 1.44389,1.84206 8.41337,14.49414 16.0356,29.13671 l 2.87704,5.54297 -8.06239,0.23327 c -14.1433,0.41001 -28.16613,0.0439 -28.01212,-0.73314 0.14674,-0.74109 3.0186,-6.98037 7.67212,-16.62891 2.45146,-5.0831 5.44593,-11.29837 6.64617,-13.81856 l 2.18567,-4.58767 z m 176.60346,0.11108 c 0.54557,0.0115 2.77266,3.91852 10.68296,18.71726 3.36178,6.2893 6.75971,12.52765 7.53829,13.86298 l 1.41621,2.42158 -1.14857,0.2777 c -1.35579,0.31983 -20.64151,0.56717 -29.40606,0.37768 l -6.13319,-0.1333 0.55753,-1.32187 c 2.63842,-6.29376 16.09891,-34.21034 16.49283,-34.20203 z"
       id="path3074" />
  </g>
</svg>
